<svg width="50" height="50" viewBox="0 0 50 50" fill="none" xmlns="http://www.w3.org/2000/svg">
<g clip-path="url(#clip0_1_46)">
<path d="M29.3945 4.29688V8.59376H30.6445C32.041 8.59376 32.4707 8.68165 32.9199 9.05274C33.7891 9.78516 33.6426 11.2305 32.6367 11.7969C32.2852 11.9922 32.1191 12.0117 30.8203 12.0117H29.3945V16.3086V20.6055L32.207 20.625L35.0098 20.6543L35.0684 21.4356C35.1367 22.4121 35.3516 23.0566 35.8398 23.8184C36.4551 24.7656 37.4512 25.459 38.5938 25.7324C40.1758 26.1035 41.6895 25.6836 42.8809 24.541C43.7891 23.6816 44.3262 22.3828 44.3359 21.0645V20.6055H47.168H50V10.3027V5.72205e-06H39.6973H29.3945V4.29688ZM47.0703 10.3027V17.6758H44.248H41.416L41.3867 19.6973C41.3574 21.5332 41.3379 21.7578 41.1523 22.0703C40.7812 22.7051 40.0293 23.0469 39.3066 22.9102C38.9453 22.8418 38.3594 22.3926 38.1543 22.0313C38.0762 21.8945 38.0176 21.1231 37.9883 19.7754L37.9395 17.7246L35.1367 17.6953L32.3242 17.6758V16.3184V14.9609L32.8418 14.8438C34.9023 14.3555 36.4258 12.4512 36.4258 10.3516C36.4258 9.07227 35.9668 7.96876 35.0488 7.05079C34.4727 6.47462 33.418 5.90821 32.7637 5.80079L32.3242 5.74219V4.33594V2.92969H39.6973H47.0703V10.3027Z" fill="#F77905"/>
<path d="M0 30.8105V50H19.1895H38.3789V39.6973V29.3945H34.0918H29.8047L29.7656 30.8301C29.7266 32.4512 29.6484 32.7051 29.043 33.1641C28.2715 33.7598 27.1094 33.5156 26.6016 32.6562C26.3867 32.2852 26.3672 32.1582 26.3672 30.8301V29.3945L23.5059 29.375L20.6543 29.3457V27.9785V26.6113L21.4355 26.5527C22.4121 26.4844 23.0566 26.2695 23.8184 25.7812C24.7656 25.166 25.459 24.1699 25.7324 23.0273C26.1035 21.4453 25.6836 19.9316 24.541 18.7402C23.6816 17.832 22.3828 17.2949 21.0742 17.2852H20.6055V14.4531V11.6211H10.3027H0V30.8105ZM17.6758 17.373V20.2051L19.707 20.2344C21.5332 20.2637 21.7578 20.2832 22.0703 20.4688C22.7051 20.8398 23.0469 21.5918 22.9102 22.3145C22.8418 22.6758 22.3926 23.2617 22.0312 23.4668C21.8945 23.5449 21.123 23.6035 19.7754 23.6328L17.7246 23.6816L17.6953 26.543L17.6758 29.4043L16.3281 29.375L14.9902 29.3457L14.9316 28.5645C14.8633 27.5879 14.6484 26.9434 14.1602 26.1816C12.627 23.8086 9.22852 23.4473 7.13867 25.4395C6.21094 26.3184 5.67383 27.6074 5.66406 28.9258V29.3945H4.29688H2.92969V21.9727V14.5508H10.3027H17.6758V17.373ZM10.9082 27.1582C11.2109 27.2656 11.6699 27.6758 11.8457 27.9785C11.9238 28.1055 11.9824 28.9258 12.0117 30.2246L12.0605 32.2754L14.873 32.3047L17.6758 32.3242V33.6914V35.0586H17.1094C15.8984 35.0586 14.7461 35.5469 13.8672 36.4258C12.3926 37.9199 12.0996 40.0195 13.0957 41.9043C13.4668 42.5977 14.3262 43.4375 15.0293 43.7988C15.6055 44.082 16.6211 44.3359 17.2656 44.3359H17.6758V45.7031V47.0703H10.3027H2.92969V39.6973V32.3242H5.76172H8.59375V30.4395C8.60352 28.0273 8.73047 27.6465 9.61914 27.2363C10.0586 27.0312 10.5078 27.002 10.9082 27.1582ZM23.5742 32.9199C23.8184 33.8184 24.1797 34.4531 24.7949 35.0684C26.2012 36.4648 28.252 36.8262 30.0488 35.9766C31.2305 35.4199 32.4023 33.9258 32.5781 32.7637L32.6367 32.3242H34.043H35.4492V39.6973V47.0703H28.0273H20.6055V44.248V41.416L18.6328 41.3867C16.8457 41.3574 16.6211 41.3379 16.3086 41.1523C15.3809 40.6152 15.1562 39.3848 15.8496 38.6035C16.3477 38.0371 16.5625 37.9883 18.7012 37.9883H20.6055V35.1562V32.3242H22.002H23.4082L23.5742 32.9199Z" fill="black"/>
</g>
<defs>
<clipPath id="clip0_1_46">
<rect width="50" height="50" fill="white"/>
</clipPath>
</defs>
</svg>
