<svg width="166" height="44" viewBox="0 0 166 44" fill="none" xmlns="http://www.w3.org/2000/svg">
<path d="M61.2575 32.3239V31.1299H55.4783V32.3239H57.6884V40.0212H59.0475V32.3239H61.2575Z" fill="#222222"/>
<path d="M70.3427 40.0212V31.1299H68.984V34.8389H64.4998V31.1299H63.141V40.0212H64.4998V36.0328H68.984V40.0212H70.3427Z" fill="#222222"/>
<path d="M78.5868 40.0212V38.8272H74.5217V36.0328H78.5868V34.8389H74.5217V32.3239H78.5868V31.1299H73.163V40.0212H78.5868Z" fill="#222222"/>
<path d="M86.7126 40.0212H88.2873L84.896 31.1299H83.7398L80.2473 40.0212H81.746L82.4064 38.1921H86.0515L86.7126 40.0212ZM84.2356 33.2003H84.2483L85.6197 36.9982H82.8509L84.2356 33.2003Z" fill="#222222"/>
<path d="M94.4742 32.3239V31.1299H88.6945V32.3239H90.905V40.0212H92.2637V32.3239H94.4742Z" fill="#222222"/>
<path d="M101.781 40.0212V38.8272H97.7164V36.0328H101.781V34.8389H97.7164V32.3239H101.781V31.1299H96.3569V40.0212H101.781Z" fill="#222222"/>
<path d="M104.233 31.1299V40.0212H105.593V36.3123H106.367L108.984 40.0212H110.686L107.892 36.2106C108.959 35.9566 110 35.1945 110 33.7084C110 31.8539 108.298 31.1299 106.913 31.1299H104.233ZM105.593 32.3239H106.85C107.866 32.3239 108.552 32.8954 108.552 33.7465C108.552 34.7118 107.726 35.1183 106.609 35.1183H105.593V32.3239Z" fill="#222222"/>
<path d="M121.116 32.3239V31.1299H115.337V32.3239H117.547V40.0212H118.906V32.3239H121.116Z" fill="#222222"/>
<path d="M124.359 40.0212V31.1299H122.999V40.0212H124.359Z" fill="#222222"/>
<path d="M128.195 35.5757C128.195 33.6197 129.593 32.1843 131.523 32.1843C132.184 32.1843 132.806 32.4129 133.34 32.7559L133.987 31.7144C133.25 31.2444 132.425 30.9777 131.523 30.9777C128.894 30.9777 126.747 32.9591 126.747 35.5757C126.747 38.3574 128.843 40.1738 131.498 40.1738C132.489 40.1738 133.416 39.8689 134.203 39.3101L133.466 38.3066C132.869 38.7385 132.209 38.9671 131.523 38.9671C129.542 38.9671 128.195 37.6461 128.195 35.5757Z" fill="#222222"/>
<path d="M142.826 31.1299H141.162L137.605 35.4485V31.1299H136.246V40.0212H137.605V37.3284L138.926 35.7533L141.39 40.0212H142.978L139.854 34.661L142.826 31.1299Z" fill="#222222"/>
<path d="M150.129 40.0212V38.8272H146.064V36.0328H150.129V34.8389H146.064V32.3239H150.129V31.1299H144.705V40.0212H150.129Z" fill="#222222"/>
<path d="M157.421 32.3239V31.1299H151.642V32.3239H153.851V40.0212H155.211V32.3239H157.421Z" fill="#222222"/>
<path d="M163.867 32.9083L164.693 31.9303C163.867 31.2952 162.978 30.9777 161.885 30.9777C160.438 30.9777 159.168 31.7651 159.168 33.4418C159.168 34.9025 160.438 35.4995 161.644 35.9314C162.635 36.2743 163.562 36.6046 163.562 37.5318C163.562 38.5479 162.711 38.9671 161.847 38.9671C160.945 38.9671 160.323 38.7004 159.523 37.9002L158.57 38.802C159.523 39.7419 160.514 40.1738 161.834 40.1738C163.232 40.1738 165.01 39.3863 165.01 37.4048C165.01 35.6646 163.524 35.0931 162.266 34.6612C161.352 34.3436 160.526 34.0769 160.526 33.3275C160.526 32.5908 161.149 32.1843 162.012 32.1843C162.711 32.1843 163.435 32.5146 163.867 32.9083Z" fill="#222222"/>
<path d="M64.0613 24.2747C62.077 24.2747 60.4076 23.844 59.0529 22.9826C57.6983 22.1025 56.7443 20.9134 56.191 19.4154L59.5681 17.4773C60.3503 19.4809 61.8862 20.4828 64.1758 20.4828C65.2824 20.4828 66.0933 20.2861 66.6084 19.8929C67.1236 19.4996 67.3812 19.0034 67.3812 18.4042C67.3812 17.7113 67.0663 17.1777 66.4367 16.8031C65.8071 16.4099 64.6814 15.9886 63.0596 15.5391C62.1629 15.277 61.3997 15.0148 60.7701 14.7527C60.1595 14.4905 59.5394 14.1441 58.9098 13.7134C58.2993 13.264 57.8318 12.7022 57.5075 12.0281C57.1831 11.3539 57.0209 10.5675 57.0209 9.66861C57.0209 7.88967 57.6601 6.47587 58.9384 5.42723C60.2359 4.35986 61.7908 3.82617 63.6034 3.82617C65.2252 3.82617 66.6466 4.21941 67.8677 5.0059C69.1079 5.77365 70.0714 6.85039 70.7582 8.23609L67.4384 10.118C66.637 8.43271 65.3587 7.59005 63.6034 7.59005C62.783 7.59005 62.1343 7.77731 61.6573 8.15183C61.1994 8.50762 60.9704 8.97576 60.9704 9.55626C60.9704 10.1742 61.228 10.6798 61.7431 11.073C62.2774 11.4476 63.2886 11.8595 64.7768 12.309C65.3873 12.4962 65.8452 12.646 66.1505 12.7584C66.4749 12.852 66.9042 13.0112 67.4384 13.2359C67.9917 13.4419 68.4115 13.6385 68.6976 13.8257C69.0029 14.013 69.3464 14.2658 69.7279 14.5841C70.1095 14.9025 70.3957 15.2302 70.5865 15.5672C70.7964 15.9043 70.9681 16.3163 71.1017 16.8031C71.2543 17.2713 71.3306 17.7862 71.3306 18.348C71.3306 20.1644 70.6533 21.6063 69.2987 22.6737C67.9631 23.741 66.2173 24.2747 64.0613 24.2747Z" fill="#222222"/>
<path d="M90.6561 4.21941L83.7874 16.2133V23.8815H79.8666V16.2133L73.0265 4.21941H77.4912L81.8413 12.4213L86.1915 4.21941H90.6561Z" fill="#222222"/>
<path d="M100.059 24.2747C98.0748 24.2747 96.4054 23.844 95.0507 22.9826C93.6961 22.1025 92.7421 20.9134 92.1888 19.4154L95.5659 17.4773C96.3481 19.4809 97.884 20.4828 100.174 20.4828C101.28 20.4828 102.091 20.2861 102.606 19.8929C103.121 19.4996 103.379 19.0034 103.379 18.4042C103.379 17.7113 103.064 17.1777 102.435 16.8031C101.805 16.4099 100.679 15.9886 99.0574 15.5391C98.1607 15.277 97.3975 15.0148 96.7679 14.7527C96.1573 14.4905 95.5373 14.1441 94.9076 13.7134C94.2971 13.264 93.8296 12.7022 93.5053 12.0281C93.1809 11.3539 93.0187 10.5675 93.0187 9.66861C93.0187 7.88967 93.6579 6.47587 94.9362 5.42723C96.2337 4.35986 97.7886 3.82617 99.6012 3.82617C101.223 3.82617 102.644 4.21941 103.865 5.0059C105.106 5.77365 106.069 6.85039 106.756 8.23609L103.436 10.118C102.635 8.43271 101.357 7.59005 99.6012 7.59005C98.7808 7.59005 98.1321 7.77731 97.6551 8.15183C97.1972 8.50762 96.9682 8.97576 96.9682 9.55626C96.9682 10.1742 97.2258 10.6798 97.7409 11.073C98.2752 11.4476 99.2864 11.8595 100.775 12.309C101.385 12.4962 101.843 12.646 102.148 12.7584C102.473 12.852 102.902 13.0112 103.436 13.2359C103.99 13.4419 104.409 13.6385 104.695 13.8257C105.001 14.013 105.344 14.2658 105.726 14.5841C106.107 14.9025 106.394 15.2302 106.584 15.5672C106.794 15.9043 106.966 16.3163 107.099 16.8031C107.252 17.2713 107.328 17.7862 107.328 18.348C107.328 20.1644 106.651 21.6063 105.296 22.6737C103.961 23.741 102.215 24.2747 100.059 24.2747Z" fill="#222222"/>
<path d="M124.217 4.21941V7.92712H118.808V23.8815H114.859V7.92712H109.478V4.21941H124.217Z" fill="#222222"/>
<path d="M132.16 20.1738H140.603V23.8815H128.211V4.21941H140.46V7.92712H132.16V12.1123H139.744V15.7639H132.16V20.1738Z" fill="#222222"/>
<path d="M164.78 4.21941V23.8815H160.859V11.1292L155.221 20.258H154.763L149.125 11.1573V23.8815H145.176V4.21941H149.239L154.992 13.5168L160.716 4.21941H164.78Z" fill="#222222"/>
<g clip-path="url(#clip0_1_12)">
<path d="M22 44C34.1503 44 44 34.1503 44 22C44 9.84974 34.1503 0 22 0C9.84974 0 0 9.84974 0 22C0 34.1503 9.84974 44 22 44Z" fill="#F77905"/>
<path d="M43.2531 27.7055C42.2436 31.4507 40.2638 34.8633 37.5137 37.5988C34.7635 40.3342 31.3403 42.2956 27.5897 43.285L14.1842 29.8765C10.256 10.7973 29.5552 14.0105 29.5552 14.0105L43.2531 27.7055Z" fill="url(#paint0_linear_1_12)"/>
<path d="M33 22C33.0006 20.5293 32.7062 19.0734 32.1343 17.7184C31.5624 16.3634 30.7246 15.1369 29.6705 14.1113C28.6163 13.0857 27.3672 12.282 25.997 11.7476C24.6268 11.2132 23.1633 10.959 21.6932 11C21.0339 11.017 20.3772 11.0906 19.7305 11.22C17.6036 11.6512 15.654 12.7084 14.1324 14.2559C12.6108 15.8033 11.5865 17.7703 11.1911 19.9042C9.94632 26.7069 14.9455 33 21.4211 33H31.3732C31.5869 33.0004 31.7986 32.9586 31.9962 32.8769C32.1937 32.7953 32.3732 32.6755 32.5244 32.5244C32.6755 32.3732 32.7953 32.1937 32.8769 31.9962C32.9586 31.7986 33.0004 31.5869 33 31.3732V22ZM27.3726 27.1411C27.3726 27.1907 27.3579 27.2392 27.3304 27.2805C27.3029 27.3218 27.2639 27.3541 27.2181 27.3733C27.1723 27.3924 27.1219 27.3976 27.0732 27.3883C27.0245 27.3789 26.9796 27.3553 26.9442 27.3205L25.6068 25.9832C24.96 26.5694 24.1801 26.9893 23.3346 27.2065C22.4891 27.4237 21.6034 27.4317 20.7541 27.2299C19.9048 27.028 19.1174 26.6224 18.46 26.048C17.8027 25.4736 17.2951 24.7477 16.9811 23.9331C16.6672 23.1186 16.5564 22.2398 16.6582 21.3728C16.7601 20.5058 17.0716 19.6766 17.5657 18.957C18.0599 18.2374 18.7219 17.6489 19.4945 17.2425C20.2671 16.8361 21.127 16.624 22 16.6245C22.7058 16.6245 23.4047 16.7635 24.0567 17.0337C24.7087 17.3039 25.3011 17.6999 25.8001 18.1991C26.299 18.6983 26.6947 19.2909 26.9645 19.9431C27.2343 20.5953 27.373 21.2942 27.3726 22V27.1411Z" fill="white"/>
</g>
<defs>
<linearGradient id="paint0_linear_1_12" x1="17.5566" y1="17.6318" x2="36.8442" y2="36.9165" gradientUnits="userSpaceOnUse">
<stop stop-color="#B38801"/>
<stop offset="0.16" stop-color="#B38801" stop-opacity="0.87"/>
<stop offset="0.48" stop-color="#B38801" stop-opacity="0.54"/>
<stop offset="0.95" stop-color="#B38801" stop-opacity="0.02"/>
<stop offset="0.96" stop-color="#B38801" stop-opacity="0"/>
</linearGradient>
<clipPath id="clip0_1_12">
<rect width="44" height="44" fill="white"/>
</clipPath>
</defs>
</svg>
