<svg width="154" height="41" viewBox="0 0 154 41" fill="none" xmlns="http://www.w3.org/2000/svg">
<path d="M57.0809 30.1195V29.007H51.6957V30.1195H53.7551V37.2921H55.0215V30.1195H57.0809Z" fill="white"/>
<path d="M65.5467 37.2921V29.007H64.2805V32.463H60.1021V29.007H58.8359V37.2921H60.1021V33.5756H64.2805V37.2921H65.5467Z" fill="white"/>
<path d="M73.2286 37.2921V36.1795H69.4407V33.5756H73.2286V32.463H69.4407V30.1195H73.2286V29.007H68.1746V37.2921H73.2286Z" fill="white"/>
<path d="M80.8004 37.2921H82.2678L79.1077 29.007H78.0303L74.7759 37.2921H76.1724L76.7878 35.5877H80.1844L80.8004 37.2921ZM78.4923 30.9362H78.5041L79.782 34.4751H77.202L78.4923 30.9362Z" fill="white"/>
<path d="M88.0328 30.1195V29.007H82.6472V30.1195H84.7069V37.2921H85.9731V30.1195H88.0328Z" fill="white"/>
<path d="M94.8411 37.2921V36.1795H91.0539V33.5756H94.8411V32.463H91.0539V30.1195H94.8411V29.007H89.7871V37.2921H94.8411Z" fill="white"/>
<path d="M97.1263 29.007V37.2921H98.3931V33.836H99.1147L101.553 37.2921H103.139L100.535 33.7413C101.53 33.5046 102.5 32.7945 102.5 31.4096C102.5 29.6816 100.914 29.007 99.6239 29.007H97.1263ZM98.3931 30.1195H99.5649C100.512 30.1195 101.151 30.6521 101.151 31.4452C101.151 32.3447 100.381 32.7234 99.3401 32.7234H98.3931V30.1195Z" fill="white"/>
<path d="M112.859 30.1195V29.007H107.473V30.1195H109.533V37.2921H110.799V30.1195H112.859Z" fill="white"/>
<path d="M115.88 37.2921V29.007H114.613V37.2921H115.88Z" fill="white"/>
<path d="M119.455 33.1493C119.455 31.3266 120.757 29.9891 122.556 29.9891C123.171 29.9891 123.751 30.2022 124.248 30.5217L124.852 29.5512C124.165 29.1133 123.396 28.8647 122.556 28.8647C120.106 28.8647 118.105 30.7111 118.105 33.1493C118.105 35.7413 120.058 37.4339 122.532 37.4339C123.455 37.4339 124.319 37.1498 125.053 36.6291L124.366 35.694C123.81 36.0964 123.195 36.3095 122.556 36.3095C120.71 36.3095 119.455 35.0785 119.455 33.1493Z" fill="white"/>
<path d="M133.088 29.007H131.537L128.223 33.0312V29.007H126.956V37.2921H128.223V34.7828L129.454 33.3152L131.75 37.2921H133.23L130.318 32.2973L133.088 29.007Z" fill="white"/>
<path d="M139.893 37.2921V36.1795H136.106V33.5756H139.893V32.463H136.106V30.1195H139.893V29.007H134.839V37.2921H139.893Z" fill="white"/>
<path d="M146.687 30.1195V29.007H141.302V30.1195H143.361V37.2921H144.628V30.1195H146.687Z" fill="white"/>
<path d="M152.694 30.6638L153.464 29.7524C152.694 29.1606 151.866 28.8647 150.847 28.8647C149.499 28.8647 148.315 29.5985 148.315 31.1609C148.315 32.522 149.499 33.0783 150.623 33.4807C151.546 33.8003 152.41 34.108 152.41 34.972C152.41 35.9189 151.617 36.3095 150.812 36.3095C149.972 36.3095 149.392 36.0609 148.646 35.3153L147.759 36.1556C148.646 37.0314 149.57 37.4339 150.8 37.4339C152.102 37.4339 153.759 36.7 153.759 34.8537C153.759 33.2322 152.374 32.6996 151.203 32.2971C150.351 32.0012 149.581 31.7527 149.581 31.0544C149.581 30.3679 150.161 29.9891 150.966 29.9891C151.617 29.9891 152.292 30.2969 152.694 30.6638Z" fill="white"/>
<path d="M59.6935 22.619C57.8445 22.619 56.2889 22.2177 55.0266 21.415C53.7643 20.5949 52.8754 19.4869 52.3598 18.091L55.5066 16.285C56.2356 18.1521 57.6667 19.0856 59.8002 19.0856C60.8314 19.0856 61.5869 18.9024 62.067 18.536C62.547 18.1695 62.787 17.7071 62.787 17.1488C62.787 16.5031 62.4937 16.0059 61.907 15.6569C61.3203 15.2904 60.2713 14.8978 58.7601 14.4791C57.9245 14.2348 57.2134 13.9905 56.6267 13.7462C56.0578 13.5019 55.48 13.1791 54.8933 12.7778C54.3243 12.359 53.8888 11.8355 53.5865 11.2074C53.2843 10.5792 53.1332 9.84634 53.1332 9.00879C53.1332 7.35114 53.7288 6.03373 54.9199 5.05659C56.1289 4.06199 57.5779 3.5647 59.2668 3.5647C60.778 3.5647 62.1025 3.93113 63.2404 4.66399C64.396 5.3794 65.2938 6.38271 65.9338 7.67394L62.8403 9.42757C62.0936 7.85716 60.9025 7.07195 59.2668 7.07195C58.5023 7.07195 57.8979 7.24644 57.4534 7.59542C57.0267 7.92695 56.8134 8.36318 56.8134 8.9041C56.8134 9.47992 57.0534 9.95104 57.5334 10.3175C58.0312 10.6664 58.9735 11.0503 60.3602 11.4691C60.9291 11.6436 61.3558 11.7832 61.6403 11.8879C61.9425 11.9751 62.3425 12.1234 62.8403 12.3328C63.3559 12.5248 63.7471 12.708 64.0137 12.8825C64.2982 13.057 64.6182 13.2925 64.9738 13.5892C65.3294 13.8858 65.596 14.1912 65.7738 14.5052C65.9694 14.8193 66.1294 15.2032 66.2539 15.6569C66.3961 16.0931 66.4672 16.5729 66.4672 17.0964C66.4672 18.789 65.8361 20.1325 64.5738 21.1271C63.3293 22.1217 61.7025 22.619 59.6935 22.619Z" fill="white"/>
<path d="M84.475 3.93113L78.0747 15.1072V22.2526H74.4212V15.1072L68.0475 3.93113H72.2077L76.2613 11.5738L80.3148 3.93113H84.475Z" fill="white"/>
<path d="M93.2369 22.619C91.3879 22.619 89.8323 22.2177 88.57 21.415C87.3077 20.5949 86.4188 19.4869 85.9032 18.091L89.05 16.285C89.779 18.1521 91.2102 19.0856 93.3436 19.0856C94.3748 19.0856 95.1304 18.9024 95.6104 18.536C96.0904 18.1695 96.3304 17.7071 96.3304 17.1488C96.3304 16.5031 96.0371 16.0059 95.4504 15.6569C94.8637 15.2904 93.8147 14.8978 92.3035 14.4791C91.4679 14.2348 90.7568 13.9905 90.1701 13.7462C89.6012 13.5019 89.0234 13.1791 88.4367 12.7778C87.8678 12.359 87.4322 11.8355 87.1299 11.2074C86.8277 10.5792 86.6766 9.84634 86.6766 9.00879C86.6766 7.35114 87.2722 6.03373 88.4633 5.05659C89.6723 4.06199 91.1213 3.5647 92.8102 3.5647C94.3214 3.5647 95.6459 3.93113 96.7838 4.66399C97.9394 5.3794 98.8372 6.38271 99.4772 7.67394L96.3838 9.42757C95.637 7.85716 94.4459 7.07195 92.8102 7.07195C92.0457 7.07195 91.4413 7.24644 90.9968 7.59542C90.5701 7.92695 90.3568 8.36318 90.3568 8.9041C90.3568 9.47992 90.5968 9.95104 91.0768 10.3175C91.5746 10.6664 92.5169 11.0503 93.9036 11.4691C94.4725 11.6436 94.8992 11.7832 95.1837 11.8879C95.4859 11.9751 95.8859 12.1234 96.3838 12.3328C96.8993 12.5248 97.2905 12.708 97.5571 12.8825C97.8416 13.057 98.1616 13.2925 98.5172 13.5892C98.8728 13.8858 99.1395 14.1912 99.3172 14.5052C99.5128 14.8193 99.6728 15.2032 99.7973 15.6569C99.9395 16.0931 100.011 16.5729 100.011 17.0964C100.011 18.789 99.3795 20.1325 98.1172 21.1271C96.8727 22.1217 95.2459 22.619 93.2369 22.619Z" fill="white"/>
<path d="M115.748 3.93113V7.38603H110.708V22.2526H107.027V7.38603H102.014V3.93113H115.748Z" fill="white"/>
<path d="M123.149 18.7977H131.016V22.2526H119.469V3.93113H130.883V7.38603H123.149V11.2859H130.216V14.6884H123.149V18.7977Z" fill="white"/>
<path d="M153.545 3.93113V22.2526H149.891V10.3698L144.638 18.8762H144.211L138.957 10.396V22.2526H135.277V3.93113H139.064L144.424 12.5946L149.758 3.93113H153.545Z" fill="white"/>
<g clip-path="url(#clip0_1_232)">
<path d="M20.5 41C31.8218 41 41 31.8218 41 20.5C41 9.17816 31.8218 0 20.5 0C9.17816 0 0 9.17816 0 20.5C0 31.8218 9.17816 41 20.5 41Z" fill="#F77905"/>
<path d="M40.3041 25.8166C39.3634 29.3064 37.5186 32.4864 34.956 35.0353C32.3933 37.5842 29.2035 39.4119 25.7086 40.3338L13.2171 27.8396C9.5568 10.0612 27.5401 13.0553 27.5401 13.0553L40.3041 25.8166Z" fill="url(#paint0_linear_1_232)"/>
<path d="M30.75 20.5C30.7505 19.1295 30.4762 17.7729 29.9433 16.5103C29.4104 15.2477 28.6298 14.1048 27.6475 13.1491C26.6652 12.1935 25.5012 11.4445 24.2244 10.9466C22.9477 10.4486 21.584 10.2117 20.2141 10.25C19.5997 10.2658 18.9879 10.3344 18.3853 10.455C16.4033 10.8568 14.5867 11.8419 13.1688 13.2838C11.7509 14.7258 10.7965 16.5586 10.428 18.5471C9.26816 24.8859 13.9265 30.75 19.9605 30.75H29.2341C29.4333 30.7503 29.6305 30.7113 29.8146 30.6353C29.9987 30.5592 30.166 30.4476 30.3068 30.3067C30.4476 30.1659 30.5593 29.9987 30.6353 29.8146C30.7114 29.6305 30.7504 29.4332 30.75 29.234V20.5ZM25.5063 25.2905C25.5063 25.3367 25.4926 25.3819 25.467 25.4204C25.4414 25.4589 25.405 25.489 25.3623 25.5068C25.3197 25.5247 25.2727 25.5296 25.2273 25.5208C25.1819 25.5121 25.1401 25.4901 25.1071 25.4577L23.8609 24.2115C23.2582 24.7578 22.5315 25.149 21.7436 25.3514C20.9557 25.5538 20.1304 25.5613 19.339 25.3732C18.5476 25.1851 17.8139 24.8071 17.2014 24.2719C16.5888 23.7367 16.1159 23.0603 15.8233 22.3013C15.5308 21.5423 15.4275 20.7234 15.5224 19.9155C15.6173 19.1076 15.9076 18.335 16.3681 17.6644C16.8285 16.9939 17.4454 16.4456 18.1653 16.0669C18.8852 15.6882 19.6866 15.4905 20.5 15.4909C21.1577 15.4909 21.8089 15.6205 22.4165 15.8723C23.024 16.124 23.576 16.4931 24.041 16.9582C24.5059 17.4234 24.8746 17.9756 25.126 18.5833C25.3774 19.191 25.5067 19.8423 25.5063 20.5V25.2905Z" fill="white"/>
</g>
<defs>
<linearGradient id="paint0_linear_1_232" x1="16.3596" y1="16.4297" x2="34.3321" y2="34.3996" gradientUnits="userSpaceOnUse">
<stop stop-color="#B38801"/>
<stop offset="0.16" stop-color="#B38801" stop-opacity="0.87"/>
<stop offset="0.48" stop-color="#B38801" stop-opacity="0.54"/>
<stop offset="0.95" stop-color="#B38801" stop-opacity="0.02"/>
<stop offset="0.96" stop-color="#B38801" stop-opacity="0"/>
</linearGradient>
<clipPath id="clip0_1_232">
<rect width="41" height="41" fill="white"/>
</clipPath>
</defs>
</svg>
